<svg viewBox="0 0 1280 640" xmlns="http://www.w3.org/2000/svg" xmlns:xlink="http://www.w3.org/1999/xlink">
  <defs>
    <filter id="glow" x="-39.1%" y="-39.1%" width="178.1%" height="178.1%" filterUnits="objectBoundingBox">
      <feGaussianBlur stdDeviation="50" in="SourceGraphic"/>
    </filter>
    <linearGradient id="sheen" x1="50%" y1="100%" x2="50%" y2="0%">
      <stop stop-color="#C41414" stop-opacity="0" offset="0%"/>
      <stop stop-color="#FF5C5C" stop-opacity="0.596852122" offset="100%"/>
    </linearGradient>
    <path id="mark" d="M7.41327198,121.509231 L174.102778,5.17384607 C183.987141,-1.72461536 200.012859,-1.72461536 209.897222,5.17384607 L376.586728,121.509231 C386.471091,128.407692 386.471091,139.592308 376.586728,146.490769 L209.897222,262.826154 C200.012859,269.724615 183.987141,269.724615 174.102778,262.826154 L7.41327198,146.490769 C-2.47109066,139.592308 -2.47109066,128.407692 7.41327198,121.509231 Z"/>
  </defs>
  <rect fill="#1B1B1F" width="1280" height="640"/>
  <g transform="translate(132 128)">
    <rect fill="#FF3E3E" fill-opacity="0.501927516" opacity="0.399999709" filter="url(#glow)" width="384" height="384" rx="192"/>
    <path fill="#FFFFFF" fill-opacity="0.801988295" fill-rule="nonzero" d="M472.755859,232 L480.8125,206.365234 L517.946289,206.365234 L526.00293,232 L549.513672,232 L512.746094,126.311523 L486.745117,126.311523 L450.050781,232 L472.755859,232 Z M513.185547,189.8125 L485.573242,189.8125 L499.123047,146.526367 L499.635742,146.526367 L513.185547,189.8125 Z M579.835938,257.634766 L579.835938,218.816406 L580.275391,218.816406 C584.523438,227.678711 593.239258,232.952148 604.665039,232.952148 C624.293945,232.952148 636.452148,217.717773 636.452148,192.742187 C636.452148,167.693359 624.220703,152.532227 604.298828,152.532227 C593.239258,152.532227 584.157227,158.025391 579.982422,166.960937 L579.542969,166.960937 L579.542969,153.484375 L558.449219,153.484375 L558.449219,257.634766 L579.835938,257.634766 Z M597.121094,215.740234 C586.647461,215.740234 579.762695,206.658203 579.762695,192.742187 C579.762695,178.972656 586.720703,169.744141 597.121094,169.744141 C607.667969,169.744141 614.552734,178.826172 614.552734,192.742187 C614.552734,206.731445 607.667969,215.740234 597.121094,215.740234 Z M658.498047,144.841797 C664.796875,144.841797 669.923828,140.007812 669.923828,133.782227 C669.923828,127.410156 664.796875,122.722656 658.498047,122.722656 C652.199219,122.722656 647.072266,127.410156 647.072266,133.782227 C647.072266,140.007812 652.199219,144.841797 658.498047,144.841797 Z M669.191406,232 L669.191406,153.484375 L647.804688,153.484375 L647.804688,232 L669.191406,232 Z M721.193359,232 L735.329102,176.482422 L735.768555,176.482422 L749.977539,232 L772.755859,232 L793.556641,153.484375 L772.462891,153.484375 L760.524414,211.711914 L760.084961,211.711914 L746.095703,153.484375 L725.587891,153.484375 L711.671875,211.711914 L711.232422,211.711914 L699.367188,153.484375 L677.833984,153.484375 L698.708008,232 L721.193359,232 Z M837.941406,233.391602 C861.891602,233.391602 876.833008,218.230469 876.833008,192.668945 C876.833008,167.473633 861.671875,152.092773 837.941406,152.092773 C814.210938,152.092773 799.049805,167.546875 799.049805,192.668945 C799.049805,218.157227 813.991211,233.391602 837.941406,233.391602 Z M837.941406,217.058594 C827.174805,217.058594 820.729492,208.196289 820.729492,192.742187 C820.729492,177.507812 827.248047,168.425781 837.941406,168.425781 C848.634766,168.425781 855.080078,177.43457 855.080078,192.742187 C855.080078,208.196289 848.634766,217.058594 837.941406,217.058594 Z M909.206055,232 L909.206055,188.420898 C909.206055,177.361328 915.358398,170.916016 925.905273,170.916016 C928.981445,170.916016 931.911133,171.428711 933.668945,172.161133 L933.668945,153.337891 C932.130859,152.825195 930.080078,152.532227 927.589844,152.532227 C918.361328,152.532227 911.623047,157.878906 908.913086,167.620117 L908.473633,167.620117 L908.473633,153.484375 L887.819336,153.484375 L887.819336,232 L909.206055,232 Z M964.28418,232 L964.28418,206.072266 L969.850586,200.066406 L992.335938,232 L1016.94531,232 L985.524414,187.175781 L1015.48047,153.484375 L991.237305,153.484375 L964.577148,184.978516 L964.28418,184.978516 L964.28418,126.311523 L942.897461,126.311523 L942.897461,232 L964.28418,232 Z"/>
    <path fill="#FFFFFF" fill-opacity="0.161972793" d="M26.6410561,252.852019 L175.967072,148.634904 C184.821814,142.455032 199.178186,142.455032 208.032928,148.634904 L357.358944,252.852019 C366.213685,259.031891 366.213685,269.051443 357.358944,275.231314 L208.032928,379.44843 C199.178186,385.628301 184.821814,385.628301 175.967072,379.44843 L26.6410561,275.231314 C17.7863146,269.051443 17.7863146,259.031891 26.6410561,252.852019 Z"/>
    <path fill="#FFFFFF" fill-opacity="0.0408978229" fill-rule="nonzero" d="M208.032928,148.634904 L357.358944,252.852019 C366.213685,259.031891 366.213685,269.051443 357.358944,275.231314 L208.032928,379.44843 C199.178186,385.628301 184.821814,385.628301 175.967072,379.44843 L26.6410561,275.231314 C17.7863146,269.051443 17.7863146,259.031891 26.6410561,252.852019 L175.967072,148.634904 C184.821814,142.455032 199.178186,142.455032 208.032928,148.634904 Z M203.454406,155.195174 C197.604536,151.112452 187.533526,150.942338 181.331894,154.684833 L180.545594,155.195174 L31.2195778,259.412289 C27.1056728,262.283452 26.9342601,265.403288 30.7053397,268.295174 L31.2195778,268.671044 L180.545594,372.88816 C186.395464,376.970882 196.466474,377.140995 202.668106,373.3985 L203.454406,372.88816 L352.780422,268.671044 C356.894327,265.799882 357.06574,262.680045 353.29466,259.788159 L352.780422,259.412289 L203.454406,155.195174 Z"/>
    <use fill="#FF3E3E" fill-opacity="0.8" xlink:href="#mark"/>
    <use fill="url(#sheen)" xlink:href="#mark"/>
    <path fill="#FF3E3E" fill-opacity="0.400474282" fill-rule="nonzero" d="M209.897222,5.17384607 L376.586728,121.509231 C386.471091,128.407692 386.471091,139.592308 376.586728,146.490769 L209.897222,262.826154 C200.012859,269.724615 183.987141,269.724615 174.102778,262.826154 L7.41327198,146.490769 C-2.47109066,139.592308 -2.47109066,128.407692 7.41327198,121.509231 L174.102778,5.17384607 C183.987141,-1.72461536 200.012859,-1.72461536 209.897222,5.17384607 Z M205.3187,11.7341159 C198.449083,6.9396955 186.724227,6.76212437 179.494963,11.2014025 L178.6813,11.7341159 L11.9917936,128.0695 C6.86652774,131.646509 6.67670308,135.888614 11.4223196,139.514889 L11.9917936,139.9305 L178.6813,256.265884 C185.550917,261.060305 197.275773,261.237876 204.505037,256.798598 L205.3187,256.265884 L372.008206,139.9305 C377.133472,136.353491 377.323297,132.111386 372.57768,128.485111 L372.008206,128.0695 L205.3187,11.7341159 Z"/>
  </g>
</svg>
