<svg width="96" height="96" viewBox="0 0 96 96" xmlns="http://www.w3.org/2000/svg">
  <path d="M1.85331799,59.3773077 L43.5256946,30.2934615 C45.9967852,28.5688462 50.0032148,28.5688462 52.4743054,30.2934615 L94.146682,59.3773077 C96.6177727,61.101923 96.6177727,63.898077 94.146682,65.6226923 L52.4743054,94.7065385 C50.0032148,96.4311538 45.9967852,96.4311538 43.5256946,94.7065385 L1.85331799,65.6226923 C-0.617772665,63.898077 -0.617772665,61.101923 1.85331799,59.3773077 Z" fill-opacity="0.161972793" fill="#FFFFFF"/>
  <path d="M52.4743054,30.2934615 L94.146682,59.3773077 C96.6177727,61.101923 96.6177727,63.898077 94.146682,65.6226923 L52.4743054,94.7065385 C50.0032148,96.4311538 45.9967852,96.4311538 43.5256946,94.7065385 L1.85331799,65.6226923 C-0.617772665,63.898077 -0.617772665,61.101923 1.85331799,59.3773077 L43.5256946,30.2934615 C45.9967852,28.5688462 50.0032148,28.5688462 52.4743054,30.2934615 Z M51.329675,31.933529 C49.6122707,30.7349239 46.6810569,30.6905311 44.8737407,31.8003506 L44.670325,31.933529 L2.9979484,61.0173751 C1.71663194,61.9116272 1.66917577,62.9721535 2.8555799,63.8787223 L2.9979484,63.9826249 L44.670325,93.066471 C46.3877293,94.2650761 49.3189431,94.3094689 51.1262593,93.1996494 L51.329675,93.066471 L93.0020516,63.9826249 C94.2833681,63.0883728 94.3308242,62.0278465 93.1444201,61.1212777 L93.0020516,61.0173751 L51.329675,31.933529 Z" fill-opacity="0.101408845" fill="#FFFFFF" fill-rule="nonzero"/>
  <path d="M1.85331799,30.3773077 L43.5256946,1.29346152 C45.9967852,-0.431153839 50.0032148,-0.431153839 52.4743054,1.29346152 L94.146682,30.3773077 C96.6177727,32.101923 96.6177727,34.898077 94.146682,36.6226923 L52.4743054,65.7065385 C50.0032148,67.4311538 45.9967852,67.4311538 43.5256946,65.7065385 L1.85331799,36.6226923 C-0.617772665,34.898077 -0.617772665,32.101923 1.85331799,30.3773077 Z" fill-opacity="0.702628182" fill="#FF3E3E"/>
  <path d="M52.4743054,1.29346152 L94.146682,30.3773077 C96.6177727,32.101923 96.6177727,34.898077 94.146682,36.6226923 L52.4743054,65.7065385 C50.0032148,67.4311538 45.9967852,67.4311538 43.5256946,65.7065385 L1.85331799,36.6226923 C-0.617772665,34.898077 -0.617772665,32.101923 1.85331799,30.3773077 L43.5256946,1.29346152 C45.9967852,-0.431153839 50.0032148,-0.431153839 52.4743054,1.29346152 Z M51.329675,2.93352896 C49.6122707,1.73492387 46.6810569,1.69053109 44.8737407,2.80035062 L44.670325,2.93352896 L2.9979484,32.0173751 C1.71663194,32.9116272 1.66917577,33.9721535 2.8555799,34.8787223 L2.9979484,34.9826249 L44.670325,64.066471 C46.3877293,65.2650761 49.3189431,65.3094689 51.1262593,64.1996494 L51.329675,64.066471 L93.0020516,34.9826249 C94.2833681,34.0883728 94.3308242,33.0278465 93.1444201,32.1212777 L93.0020516,32.0173751 L51.329675,2.93352896 Z" fill-opacity="0.596669444" fill="#FF3E3E" fill-rule="nonzero"/>
</svg>
