<svg width="600" height="130" viewBox="0 0 600 130" xmlns="http://www.w3.org/2000/svg">
  <g transform="translate(21 8)" fill="none">
    <path d="M122.548828,94 L128.994141,73.4921875 L158.701172,73.4921875 L165.146484,94 L183.955078,94 L154.541016,9.44921875 L133.740234,9.44921875 L104.384766,94 L122.548828,94 Z M154.892578,60.25 L132.802734,60.25 L143.642578,25.6210938 L144.052734,25.6210938 L154.892578,60.25 Z M208.212891,114.507812 L208.212891,83.453125 L208.564453,83.453125 C211.962891,90.5429688 218.935547,94.7617188 228.076172,94.7617188 C243.779297,94.7617188 253.505859,82.5742188 253.505859,62.59375 C253.505859,42.5546875 243.720703,30.4257812 227.783203,30.4257812 C218.935547,30.4257812 211.669922,34.8203125 208.330078,41.96875 L207.978516,41.96875 L207.978516,31.1875 L191.103516,31.1875 L191.103516,114.507812 L208.212891,114.507812 Z M222.041016,80.9921875 C213.662109,80.9921875 208.154297,73.7265625 208.154297,62.59375 C208.154297,51.578125 213.720703,44.1953125 222.041016,44.1953125 C230.478516,44.1953125 235.986328,51.4609375 235.986328,62.59375 C235.986328,73.7851562 230.478516,80.9921875 222.041016,80.9921875 Z M279.697266,94 L279.697266,31.1875 L262.587891,31.1875 L262.587891,94 L279.697266,94 Z" fill-opacity="0.602655157" fill="#000000" fill-rule="nonzero"/>
    <circle fill-opacity="0.602655157" fill="#000000" cx="271.5" cy="12.5" r="12.5"/>
    <path d="M321.298828,94 L332.607422,49.5859375 L332.958984,49.5859375 L344.326172,94 L362.548828,94 L379.189453,31.1875 L362.314453,31.1875 L352.763672,77.7695312 L352.412109,77.7695312 L341.220703,31.1875 L324.814453,31.1875 L313.681641,77.7695312 L313.330078,77.7695312 L303.837891,31.1875 L286.611328,31.1875 L303.310547,94 L321.298828,94 Z M414.697266,95.1132812 C433.857422,95.1132812 445.810547,82.984375 445.810547,62.5351562 C445.810547,42.3789062 433.681641,30.0742188 414.697266,30.0742188 C395.712891,30.0742188 383.583984,42.4375 383.583984,62.5351562 C383.583984,82.9257812 395.537109,95.1132812 414.697266,95.1132812 Z M414.697266,82.046875 C406.083984,82.046875 400.927734,74.9570312 400.927734,62.59375 C400.927734,50.40625 406.142578,43.140625 414.697266,43.140625 C423.251953,43.140625 428.408203,50.3476562 428.408203,62.59375 C428.408203,74.9570312 423.251953,82.046875 414.697266,82.046875 Z M471.708984,94 L471.708984,59.1367188 C471.708984,50.2890625 476.630859,45.1328125 485.068359,45.1328125 C487.529297,45.1328125 489.873047,45.5429688 491.279297,46.1289062 L491.279297,31.0703125 C490.048828,30.6601562 488.408203,30.4257812 486.416016,30.4257812 C479.033203,30.4257812 473.642578,34.703125 471.474609,42.4960938 L471.123047,42.4960938 L471.123047,31.1875 L454.599609,31.1875 L454.599609,94 L471.708984,94 Z M515.771484,94 L515.771484,73.2578125 L520.224609,68.453125 L538.212891,94 L557.900391,94 L532.763672,58.140625 L556.728516,31.1875 L537.333984,31.1875 L516.005859,56.3828125 L515.771484,56.3828125 L515.771484,9.44921875 L498.662109,9.44921875 L498.662109,94 L515.771484,94 Z" fill-opacity="0.702628182" fill="#E30F0F" fill-rule="nonzero"/>
    <g transform="translate(0 3)">
      <path d="M1.85331799,59.3773077 L43.5256946,30.2934615 C45.9967852,28.5688462 50.0032148,28.5688462 52.4743054,30.2934615 L94.146682,59.3773077 C96.6177727,61.101923 96.6177727,63.898077 94.146682,65.6226923 L52.4743054,94.7065385 C50.0032148,96.4311538 45.9967852,96.4311538 43.5256946,94.7065385 L1.85331799,65.6226923 C-0.617772665,63.898077 -0.617772665,61.101923 1.85331799,59.3773077 Z" fill-opacity="0.156842425" fill="#000000"/>
      <path d="M52.4743054,30.2934615 L94.146682,59.3773077 C96.6177727,61.101923 96.6177727,63.898077 94.146682,65.6226923 L52.4743054,94.7065385 C50.0032148,96.4311538 45.9967852,96.4311538 43.5256946,94.7065385 L1.85331799,65.6226923 C-0.617772665,63.898077 -0.617772665,61.101923 1.85331799,59.3773077 L43.5256946,30.2934615 C45.9967852,28.5688462 50.0032148,28.5688462 52.4743054,30.2934615 Z M51.329675,31.933529 C49.6122707,30.7349239 46.6810569,30.6905311 44.8737407,31.8003506 L44.670325,31.933529 L2.9979484,61.0173751 C1.71663194,61.9116272 1.66917577,62.9721535 2.8555799,63.8787223 L2.9979484,63.9826249 L44.670325,93.066471 C46.3877293,94.2650761 49.3189431,94.3094689 51.1262593,93.1996494 L51.329675,93.066471 L93.0020516,63.9826249 C94.2833681,63.0883728 94.3308242,62.0278465 93.1444201,61.1212777 L93.0020516,61.0173751 L51.329675,31.933529 Z" fill-opacity="0.0408978229" fill="#000000" fill-rule="nonzero"/>
      <path d="M1.85331799,30.3773077 L43.5256946,1.29346152 C45.9967852,-0.431153839 50.0032148,-0.431153839 52.4743054,1.29346152 L94.146682,30.3773077 C96.6177727,32.101923 96.6177727,34.898077 94.146682,36.6226923 L52.4743054,65.7065385 C50.0032148,67.4311538 45.9967852,67.4311538 43.5256946,65.7065385 L1.85331799,36.6226923 C-0.617772665,34.898077 -0.617772665,32.101923 1.85331799,30.3773077 Z" fill-opacity="0.803949956" fill="#FF3E3E"/>
      <path d="M52.4743054,1.29346152 L94.146682,30.3773077 C96.6177727,32.101923 96.6177727,34.898077 94.146682,36.6226923 L52.4743054,65.7065385 C50.0032148,67.4311538 45.9967852,67.4311538 43.5256946,65.7065385 L1.85331799,36.6226923 C-0.617772665,34.898077 -0.617772665,32.101923 1.85331799,30.3773077 L43.5256946,1.29346152 C45.9967852,-0.431153839 50.0032148,-0.431153839 52.4743054,1.29346152 Z M51.329675,2.93352896 C49.6122707,1.73492387 46.6810569,1.69053109 44.8737407,2.80035062 L44.670325,2.93352896 L2.9979484,32.0173751 C1.71663194,32.9116272 1.66917577,33.9721535 2.8555799,34.8787223 L2.9979484,34.9826249 L44.670325,64.066471 C46.3877293,65.2650761 49.3189431,65.3094689 51.1262593,64.1996494 L51.329675,64.066471 L93.0020516,34.9826249 C94.2833681,34.0883728 94.3308242,33.0278465 93.1444201,32.1212777 L93.0020516,32.0173751 L51.329675,2.93352896 Z" fill-opacity="0.201386992" fill="#FF3E3E" fill-rule="nonzero"/>
    </g>
  </g>
</svg>
