<svg width="600" height="130" viewBox="0 0 600 130" xmlns="http://www.w3.org/2000/svg">
  <g transform="translate(21 8)" fill="none">
    <path d="M122.548828,94 L128.994141,73.4921875 L158.701172,73.4921875 L165.146484,94 L183.955078,94 L154.541016,9.44921875 L133.740234,9.44921875 L104.384766,94 L122.548828,94 Z M154.892578,60.25 L132.802734,60.25 L143.642578,25.6210938 L144.052734,25.6210938 L154.892578,60.25 Z M208.212891,114.507812 L208.212891,83.453125 L208.564453,83.453125 C211.962891,90.5429688 218.935547,94.7617188 228.076172,94.7617188 C243.779297,94.7617188 253.505859,82.5742188 253.505859,62.59375 C253.505859,42.5546875 243.720703,30.4257812 227.783203,30.4257812 C218.935547,30.4257812 211.669922,34.8203125 208.330078,41.96875 L207.978516,41.96875 L207.978516,31.1875 L191.103516,31.1875 L191.103516,114.507812 L208.212891,114.507812 Z M222.041016,80.9921875 C213.662109,80.9921875 208.154297,73.7265625 208.154297,62.59375 C208.154297,51.578125 213.720703,44.1953125 222.041016,44.1953125 C230.478516,44.1953125 235.986328,51.4609375 235.986328,62.59375 C235.986328,73.7851562 230.478516,80.9921875 222.041016,80.9921875 Z M279.697266,94 L279.697266,31.1875 L262.587891,31.1875 L262.587891,94 L279.697266,94 Z" fill-opacity="0.307" fill="#FFFFFF" fill-rule="nonzero"/>
    <circle fill-opacity="0.307" fill="#FFFFFF" cx="271.5" cy="12.5" r="12.5"/>
    <path d="M321.298828,94 L332.607422,49.5859375 L332.958984,49.5859375 L344.326172,94 L362.548828,94 L379.189453,31.1875 L362.314453,31.1875 L352.763672,77.7695312 L352.412109,77.7695312 L341.220703,31.1875 L324.814453,31.1875 L313.681641,77.7695312 L313.330078,77.7695312 L303.837891,31.1875 L286.611328,31.1875 L303.310547,94 L321.298828,94 Z M414.697266,95.1132812 C433.857422,95.1132812 445.810547,82.984375 445.810547,62.5351562 C445.810547,42.3789062 433.681641,30.0742188 414.697266,30.0742188 C395.712891,30.0742188 383.583984,42.4375 383.583984,62.5351562 C383.583984,82.9257812 395.537109,95.1132812 414.697266,95.1132812 Z M414.697266,82.046875 C406.083984,82.046875 400.927734,74.9570312 400.927734,62.59375 C400.927734,50.40625 406.142578,43.140625 414.697266,43.140625 C423.251953,43.140625 428.408203,50.3476562 428.408203,62.59375 C428.408203,74.9570312 423.251953,82.046875 414.697266,82.046875 Z M471.708984,94 L471.708984,59.1367188 C471.708984,50.2890625 476.630859,45.1328125 485.068359,45.1328125 C487.529297,45.1328125 489.873047,45.5429688 491.279297,46.1289062 L491.279297,31.0703125 C490.048828,30.6601562 488.408203,30.4257812 486.416016,30.4257812 C479.033203,30.4257812 473.642578,34.703125 471.474609,42.4960938 L471.123047,42.4960938 L471.123047,31.1875 L454.599609,31.1875 L454.599609,94 L471.708984,94 Z M515.771484,94 L515.771484,73.2578125 L520.224609,68.453125 L538.212891,94 L557.900391,94 L532.763672,58.140625 L556.728516,31.1875 L537.333984,31.1875 L516.005859,56.3828125 L515.771484,56.3828125 L515.771484,9.44921875 L498.662109,9.44921875 L498.662109,94 L515.771484,94 Z" fill-opacity="0.703" fill="#FF3E3E" fill-rule="nonzero"/>
    <path d="M48,33 C49.409,33 50.824,33.361 51.902,34.113 L93.574,63.197 C94.485,63.833 95,64.65 95,65.5 C95,66.35 94.485,67.167 93.574,67.803 L51.902,96.887 C50.824,97.639 49.409,98 48,98 C46.591,98 45.176,97.639 44.098,96.887 L2.426,67.803 C1.515,67.167 1,66.35 1,65.5 C1,64.65 1.515,63.833 2.426,63.197 L44.098,34.113 C45.176,33.361 46.591,33 48,33 Z" stroke-opacity="0.101" stroke="#FFFFFF" stroke-width="2" fill-opacity="0.162" fill="#FFFFFF"/>
    <path d="M48,4 C49.409,4 50.824,4.361 51.902,5.113 L93.574,34.197 C94.485,34.833 95,35.65 95,36.5 C95,37.35 94.485,38.167 93.574,38.803 L51.902,67.887 C50.824,68.639 49.409,69 48,69 C46.591,69 45.176,68.639 44.098,67.887 L2.426,38.803 C1.515,38.167 1,37.35 1,36.5 C1,35.65 1.515,34.833 2.426,34.197 L44.098,5.113 C45.176,4.361 46.591,4 48,4 Z" stroke-opacity="0.597" stroke="#FF3E3E" stroke-width="2" fill-opacity="0.703" fill="#FF3E3E"/>
  </g>
</svg>
