<svg width="96" height="96" viewBox="0 0 96 96" xmlns="http://www.w3.org/2000/svg">
  <defs>
    <linearGradient x1="50%" y1="100%" x2="50%" y2="0%" id="g">
      <stop stop-color="#C41414" stop-opacity="0" offset="0%"/>
      <stop stop-color="#FF5C5C" stop-opacity="0.598" offset="100%"/>
    </linearGradient>
    <path d="M1.85331799,30.3773077 L43.5256946,1.29346152 C45.9967852,-0.431153839 50.0032148,-0.431153839 52.4743054,1.29346152 L94.146682,30.3773077 C96.6177727,32.101923 96.6177727,34.898077 94.146682,36.6226923 L52.4743054,65.7065385 C50.0032148,67.4311538 45.9967852,67.4311538 43.5256946,65.7065385 L1.85331799,36.6226923 C-0.617772665,34.898077 -0.617772665,32.101923 1.85331799,30.3773077 Z" id="d"/>
  </defs>
  <g transform="translate(5 36)" fill="#000000">
    <path d="M1.66026404,27.2130048 L38.991768,1.15872594 C41.2054534,-0.386241981 44.7945466,-0.386241981 47.008232,1.15872594 L84.339736,27.2130048 C86.5534213,28.7579727 86.5534213,31.2628606 84.339736,32.8078286 L47.008232,58.8621074 C44.7945466,60.4070753 41.2054534,60.4070753 38.991768,58.8621074 L1.66026404,32.8078286 C-0.553421345,31.2628606 -0.553421345,28.7579727 1.66026404,27.2130048 Z" fill-opacity="0.157"/>
    <path d="M47.008232,1.15872594 L84.339736,27.2130048 C86.5534213,28.7579727 86.5534213,31.2628606 84.339736,32.8078286 L47.008232,58.8621074 C44.7945466,60.4070753 41.2054534,60.4070753 38.991768,58.8621074 L1.66026404,32.8078286 C-0.553421345,31.2628606 -0.553421345,28.7579727 1.66026404,27.2130048 L38.991768,1.15872594 C41.2054534,-0.386241981 44.7945466,-0.386241981 47.008232,1.15872594 Z M45.8636015,2.79879339 C44.401134,1.77811295 41.8833814,1.7355846 40.3329734,2.67120833 L40.1363985,2.79879339 L2.80489444,28.8530722 C1.77641821,29.5708629 1.73356503,30.3508221 2.67633491,31.0737935 L2.80489444,31.1677611 L40.1363985,57.2220399 C41.598866,58.2427204 44.1166186,58.2852487 45.6670266,57.349625 L45.8636015,57.2220399 L83.1951056,31.1677611 C84.2235818,30.4499704 84.266435,29.6700113 83.3236651,28.9470399 L83.1951056,28.8530722 L45.8636015,2.79879339 Z" fill-opacity="0.041" fill-rule="nonzero"/>
  </g>
  <use fill="#FF3E3E" fill-opacity="0.8" href="#d"/>
  <use fill="url(#g)" href="#d"/>
  <path d="M52.4743054,1.29346152 L94.146682,30.3773077 C96.6177727,32.101923 96.6177727,34.898077 94.146682,36.6226923 L52.4743054,65.7065385 C50.0032148,67.4311538 45.9967852,67.4311538 43.5256946,65.7065385 L1.85331799,36.6226923 C-0.617772665,34.898077 -0.617772665,32.101923 1.85331799,30.3773077 L43.5256946,1.29346152 C45.9967852,-0.431153839 50.0032148,-0.431153839 52.4743054,1.29346152 Z M51.329675,2.93352896 C49.6122707,1.73492387 46.6810569,1.69053109 44.8737407,2.80035062 L44.670325,2.93352896 L2.9979484,32.0173751 C1.71663194,32.9116272 1.66917577,33.9721535 2.8555799,34.8787223 L2.9979484,34.9826249 L44.670325,64.066471 C46.3877293,65.2650761 49.3189431,65.3094689 51.1262593,64.1996494 L51.329675,64.066471 L93.0020516,34.9826249 C94.2833681,34.0883728 94.3308242,33.0278465 93.1444201,32.1212777 L93.0020516,32.0173751 L51.329675,2.93352896 Z" fill="#FF3E3E" fill-opacity="0.201" fill-rule="nonzero"/>
</svg>
